<svg xmlns="http://www.w3.org/2000/svg" viewBox="0 0 92.806 39.634">
  <path d="M36.274-4.183,22.423-20.709,35.04-32.3l-5.349-4.937L11.657-20.571l-.343-16.183-7.543.274.617,22.7L1.371-11.04,4.526-8.16,4.8-.206,12.137-.48l-.206-10.286,5.074-4.8L30.309.274ZM39.146,0a.689.689,0,0,1-.516-.21.72.72,0,0,1-.2-.522V-5.688a.72.72,0,0,1,.2-.522.689.689,0,0,1,.516-.21.689.689,0,0,1,.516.21.72.72,0,0,1,.2.522V-4.56l-.084-.8a1.869,1.869,0,0,1,.342-.51,2.029,2.029,0,0,1,.474-.372,2.152,2.152,0,0,1,.564-.222,2.563,2.563,0,0,1,.6-.072.918.918,0,0,1,.606.2.608.608,0,0,1,.246.48.712.712,0,0,1-.2.57.671.671,0,0,1-.444.174,1,1,0,0,1-.414-.084,1.025,1.025,0,0,0-.426-.084,1.043,1.043,0,0,0-.438.1,1.206,1.206,0,0,0-.408.318,1.675,1.675,0,0,0-.3.534,2.224,2.224,0,0,0-.114.75V-.732a.72.72,0,0,1-.2.522A.689.689,0,0,1,39.146,0ZM44.99-.732a.72.72,0,0,1-.2.522A.689.689,0,0,1,44.27,0a.689.689,0,0,1-.516-.21.72.72,0,0,1-.2-.522V-5.688a.72.72,0,0,1,.2-.522.689.689,0,0,1,.516-.21.689.689,0,0,1,.516.21.72.72,0,0,1,.2.522ZM44.258-7.2a.953.953,0,0,1-.576-.132.564.564,0,0,1-.168-.468v-.228A.533.533,0,0,1,43.7-8.5a1.029,1.029,0,0,1,.57-.126.979.979,0,0,1,.588.132.564.564,0,0,1,.168.468V-7.8a.542.542,0,0,1-.18.474A1.052,1.052,0,0,1,44.258-7.2ZM46.094-1a.671.671,0,0,1-.108-.432.579.579,0,0,1,.312-.456.65.65,0,0,1,.408-.1.681.681,0,0,1,.42.222,2.831,2.831,0,0,0,.732.54,2.137,2.137,0,0,0,.96.192,3.208,3.208,0,0,0,.4-.054.759.759,0,0,0,.378-.192.6.6,0,0,0,.162-.462.528.528,0,0,0-.18-.42,1.516,1.516,0,0,0-.474-.264q-.294-.108-.654-.2t-.762-.24a3.182,3.182,0,0,1-.714-.342,1.644,1.644,0,0,1-.528-.558,1.71,1.71,0,0,1-.2-.876,1.581,1.581,0,0,1,.336-1.02,2.194,2.194,0,0,1,.87-.648,2.828,2.828,0,0,1,1.122-.228,3.622,3.622,0,0,1,.78.09,3.052,3.052,0,0,1,.78.288,1.927,1.927,0,0,1,.624.522.852.852,0,0,1,.156.432.515.515,0,0,1-.228.456.579.579,0,0,1-.42.126.635.635,0,0,1-.4-.162,1.418,1.418,0,0,0-.546-.42,1.875,1.875,0,0,0-.786-.156,2,2,0,0,0-.39.042.77.77,0,0,0-.366.18.556.556,0,0,0-.156.438.56.56,0,0,0,.18.438A1.362,1.362,0,0,0,48.284-4q.306.1.654.2t.732.228a2.9,2.9,0,0,1,.684.348,1.651,1.651,0,0,1,.5.558,1.762,1.762,0,0,1,.192.87,1.577,1.577,0,0,1-.36,1.044,2.279,2.279,0,0,1-.9.654,2.879,2.879,0,0,1-1.1.222A4.291,4.291,0,0,1,47.27-.126,2.451,2.451,0,0,1,46.094-1Zm12.1-7a.637.637,0,0,1,.366.492.739.739,0,0,1-.174.612.546.546,0,0,1-.4.24.934.934,0,0,1-.5-.1,3.085,3.085,0,0,0-.606-.2,3.008,3.008,0,0,0-.666-.072,3.1,3.1,0,0,0-1.158.2,2.431,2.431,0,0,0-.87.582,2.516,2.516,0,0,0-.546.894A3.341,3.341,0,0,0,53.45-4.2a3.5,3.5,0,0,0,.21,1.272,2.484,2.484,0,0,0,.582.9,2.341,2.341,0,0,0,.876.534,3.325,3.325,0,0,0,1.092.174,3.552,3.552,0,0,0,.648-.06,2.224,2.224,0,0,0,.624-.216.853.853,0,0,1,.5-.084.628.628,0,0,1,.414.252.724.724,0,0,1,.174.618.632.632,0,0,1-.366.462,4.22,4.22,0,0,1-.642.258,4.869,4.869,0,0,1-.666.156A4.3,4.3,0,0,1,56.21.12a4.84,4.84,0,0,1-1.638-.276,4.148,4.148,0,0,1-1.38-.816,3.772,3.772,0,0,1-.954-1.35A4.724,4.724,0,0,1,51.89-4.2a4.471,4.471,0,0,1,.318-1.7,3.957,3.957,0,0,1,.9-1.35,4.15,4.15,0,0,1,1.374-.888A4.6,4.6,0,0,1,56.21-8.46a4.44,4.44,0,0,1,1.032.12A4.192,4.192,0,0,1,58.19-7.992ZM64.91-6.54a.7.7,0,0,1,.516.2.714.714,0,0,1,.2.528V-.732a.72.72,0,0,1-.2.522A.689.689,0,0,1,64.91,0a.689.689,0,0,1-.516-.21.72.72,0,0,1-.2-.522V-1.32l.264.108a.675.675,0,0,1-.168.378A2.287,2.287,0,0,1,63.83-.4a2.8,2.8,0,0,1-.678.366,2.337,2.337,0,0,1-.846.15,2.743,2.743,0,0,1-1.5-.426,3,3,0,0,1-1.062-1.176,3.679,3.679,0,0,1-.39-1.722,3.706,3.706,0,0,1,.39-1.734,3.03,3.03,0,0,1,1.05-1.176,2.643,2.643,0,0,1,1.464-.426,2.773,2.773,0,0,1,.948.156,2.833,2.833,0,0,1,.75.4,2.27,2.27,0,0,1,.492.486.773.773,0,0,1,.174.414l-.432.156v-.876a.72.72,0,0,1,.2-.522A.689.689,0,0,1,64.91-6.54ZM62.486-1.2a1.627,1.627,0,0,0,.924-.264,1.783,1.783,0,0,0,.618-.72A2.3,2.3,0,0,0,64.25-3.2a2.327,2.327,0,0,0-.222-1.032,1.783,1.783,0,0,0-.618-.72,1.627,1.627,0,0,0-.924-.264,1.606,1.606,0,0,0-.912.264,1.783,1.783,0,0,0-.618.72A2.327,2.327,0,0,0,60.734-3.2a2.3,2.3,0,0,0,.222,1.02,1.783,1.783,0,0,0,.618.72A1.606,1.606,0,0,0,62.486-1.2Zm4.776-5.1h2.844a.651.651,0,0,1,.48.192.651.651,0,0,1,.192.48.617.617,0,0,1-.192.462.662.662,0,0,1-.48.186H67.262a.651.651,0,0,1-.48-.192.651.651,0,0,1-.192-.48.617.617,0,0,1,.192-.462A.662.662,0,0,1,67.262-6.3Zm1.284-1.5a.67.67,0,0,1,.51.21.732.732,0,0,1,.2.522v5.34a.522.522,0,0,0,.066.276.379.379,0,0,0,.18.156.627.627,0,0,0,.246.048A.636.636,0,0,0,70.01-1.3a.666.666,0,0,1,.276-.054.4.4,0,0,1,.306.156.63.63,0,0,1,.138.432.634.634,0,0,1-.366.552A1.52,1.52,0,0,1,69.578,0a4.133,4.133,0,0,1-.558-.042,1.508,1.508,0,0,1-.576-.2,1.248,1.248,0,0,1-.45-.5,1.974,1.974,0,0,1-.18-.924v-5.4a.709.709,0,0,1,.21-.522A.709.709,0,0,1,68.546-7.8Zm7.272-.6a3.494,3.494,0,0,1,1.536.324,3.208,3.208,0,0,1,1.134.906,4.05,4.05,0,0,1,.7,1.344A5.51,5.51,0,0,1,79.418-4.2,5.2,5.2,0,0,1,79-2.082,3.581,3.581,0,0,1,77.78-.564,3.313,3.313,0,0,1,75.818,0H72.95a.709.709,0,0,1-.522-.21.709.709,0,0,1-.21-.522V-7.668a.709.709,0,0,1,.21-.522.709.709,0,0,1,.522-.21ZM75.7-1.38a1.9,1.9,0,0,0,1.236-.39,2.237,2.237,0,0,0,.7-1.032,4.251,4.251,0,0,0,.222-1.4,4.463,4.463,0,0,0-.126-1.074,2.779,2.779,0,0,0-.39-.9,1.95,1.95,0,0,0-.672-.618A1.962,1.962,0,0,0,75.7-7.02H73.6l.12-.108v5.88l-.072-.132ZM86.942-3.2A3.375,3.375,0,0,1,86.5-1.47,3.144,3.144,0,0,1,85.328-.3a3.277,3.277,0,0,1-1.65.42,3.277,3.277,0,0,1-1.65-.42,3.144,3.144,0,0,1-1.176-1.17A3.375,3.375,0,0,1,80.414-3.2a3.375,3.375,0,0,1,.438-1.734,3.189,3.189,0,0,1,1.176-1.176,3.24,3.24,0,0,1,1.65-.426,3.24,3.24,0,0,1,1.65.426A3.189,3.189,0,0,1,86.5-4.938,3.375,3.375,0,0,1,86.942-3.2Zm-1.44,0a2.181,2.181,0,0,0-.246-1.062,1.831,1.831,0,0,0-.66-.7,1.731,1.731,0,0,0-.918-.252,1.731,1.731,0,0,0-.918.252,1.831,1.831,0,0,0-.66.7A2.181,2.181,0,0,0,81.854-3.2a2.155,2.155,0,0,0,.246,1.05,1.831,1.831,0,0,0,.66.7,1.731,1.731,0,0,0,.918.252,1.731,1.731,0,0,0,.918-.252,1.831,1.831,0,0,0,.66-.7A2.155,2.155,0,0,0,85.5-3.2ZM90.746-6.54a2.635,2.635,0,0,1,.924.156,2.677,2.677,0,0,1,.726.4,2.38,2.38,0,0,1,.48.486.773.773,0,0,1,.174.414l-.312.156v-.876a.72.72,0,0,1,.2-.522.689.689,0,0,1,.516-.21.7.7,0,0,1,.516.2.714.714,0,0,1,.2.528v5.34a2.822,2.822,0,0,1-.45,1.674,2.545,2.545,0,0,1-1.182.912,4.335,4.335,0,0,1-1.572.282,4.222,4.222,0,0,1-.624-.06q-.384-.06-.732-.144a4.11,4.11,0,0,1-.528-.156,1.024,1.024,0,0,1-.5-.39.588.588,0,0,1-.054-.5.752.752,0,0,1,.348-.474.6.6,0,0,1,.5-.03q.12.036.4.144a5.994,5.994,0,0,0,.606.2,2.248,2.248,0,0,0,.582.09A2.053,2.053,0,0,0,92.306.72a1.226,1.226,0,0,0,.432-1V-1.32l.144.108a.688.688,0,0,1-.162.378,2.2,2.2,0,0,1-.444.438,2.709,2.709,0,0,1-.666.366,2.223,2.223,0,0,1-.816.15,2.846,2.846,0,0,1-1.536-.426,3.009,3.009,0,0,1-1.08-1.176,3.633,3.633,0,0,1-.4-1.722,3.659,3.659,0,0,1,.4-1.734,3.041,3.041,0,0,1,1.068-1.176A2.743,2.743,0,0,1,90.746-6.54Zm.228,1.32a1.706,1.706,0,0,0-.948.264,1.794,1.794,0,0,0-.636.72A2.276,2.276,0,0,0,89.162-3.2a2.249,2.249,0,0,0,.228,1.02,1.794,1.794,0,0,0,.636.72,1.706,1.706,0,0,0,.948.264,1.728,1.728,0,0,0,.96-.264,1.794,1.794,0,0,0,.636-.72A2.249,2.249,0,0,0,92.8-3.2a2.276,2.276,0,0,0-.228-1.032,1.794,1.794,0,0,0-.636-.72A1.728,1.728,0,0,0,90.974-5.22Z" transform="translate(-1.371 37.234)"/>
</svg>
